Title: I Wish Aka Kiseki (2010)

Director: Hirokazu Kore-Eda

Writer: Hirokazu Kore-Eda 

Stars: Koki Maeda, Ohshirô Maeda and Ryôga Hayashi

Language: Japanese

Subtitles: English and Japanese

Imdb: http://www.imdb.com/title/tt1650453/

Plot: Two brothers are separated after their parent\'s divorce. Older brother Koichi (Koki Maeda) lives with his mother (Nene Otsuka) and grandparents in Kagoshima. Younger brother Ryonosuke (Oshiro Maeda) lives with his father (Joe Odagiri) in Fukuoka. Meanwhile, the Kyushu trainline connecting these two cities is nearing completion. A rumor spreads that when the bullet trains first runs (one coming from the north and one coming from south) and at the exact moment the two trains crosses paths energy is released and wishes will be granted to those that witness the event. Koichi hears of the rumor and implements a plan with his younger brother to reunite his family...


Rip Spects:

General
Complete name             : I.Wish.[Kiseki].2011.DVDRip.XviD.AC3.HORiZON-ArtSubs
Format                           : AVI
Format/Info                      : Audio Video Interleave
File size                        : 1.75 GiB
Duration                         : 2h 8mn
Overall bit rate                 : 1 950 Kbps
Writing application              : FairUse Wizard - http://fairusewizard.com
Writing library                  : The best and REALLY easy backup tool

Video
ID                               : 0
Format                           : MPEG-4 Visual
Format profile                   : Advanced Simple@L5
Format settings, BVOP            : 1
Format settings, QPel            : No
Format settings, GMC             : No warppoints
Format settings, Matrix          : Default (MPEG)
Muxing mode                      : Packed bitstream
Codec ID                         : XVID
Codec ID/Hint                    : XviD
Duration                         : 2h 8mn
Bit rate                         : 1 493 Kbps
Width                            : 688 pixels
Height                           : 368 pixels
Display aspect ratio             : 1.870
Frame rate                       : 23.976 fps
Color space                      : YUV
Chroma subsampling               : 4:2:0
Bit depth                        : 8 bits
Scan type                        : Progressive
Compression mode                 : Lossy
Bits/(Pixel*Frame)               : 0.246
Stream size                      : 1.34 GiB (77%)
Writing library                  : XviD 1.2.0.dev47 (UTC 2006-11-01)

Audio
ID                               : 1
Format                           : AC-3
Format/Info                      : Audio Coding 3
Mode extension                   : CM (complete main)
Codec ID                         : 2000
Duration                         : 2h 8mn
Bit rate mode                    : Constant
Bit rate                         : 448 Kbps
Channel(s)                       : 2 channels
Channel positions                : Front: L R
Sampling rate                    : 48.0 KHz
Bit depth                        : 16 bits
Compression mode                 : Lossy
Stream size                      : 413 MiB (23%)
Alignment                        : Split accross interleaves
Interleave, duration             : 42 ms (1.00 video frame)
Interleave, preload duration     : 500 ms
		